<?xml version="1.0" encoding="UTF-8" standalone="no"?>
<!DOCTYPE svg PUBLIC "-//W3C//DTD SVG 1.1//EN" "http://www.w3.org/Graphics/SVG/1.1/DTD/svg11.dtd">
<svg width="100%" height="100%" viewBox="0 0 2279 797" version="1.1" xmlns="http://www.w3.org/2000/svg" xmlns:xlink="http://www.w3.org/1999/xlink" xml:space="preserve" xmlns:serif="http://www.serif.com/" style="fill-rule:evenodd;clip-rule:evenodd;stroke-linejoin:round;stroke-miterlimit:2;">
    <g transform="matrix(1,0,0,1,-614.469,-732.064)">
        <g transform="matrix(1,0,0,1,-69.9858,54.3192)">
            <g transform="matrix(1,0,0,1,706.427,1164.98)">
                <g transform="matrix(600,0,0,600,2131.56,300.554)">
                    <path d="M0.14,0.014C0.121,0.014 0.105,0.007 0.092,-0.007C0.079,-0.02 0.072,-0.036 0.072,-0.055C0.072,-0.074 0.079,-0.09 0.092,-0.103C0.105,-0.116 0.121,-0.123 0.14,-0.123C0.159,-0.123 0.175,-0.116 0.189,-0.103C0.202,-0.09 0.209,-0.074 0.209,-0.055C0.209,-0.036 0.202,-0.02 0.189,-0.007C0.175,0.007 0.159,0.014 0.14,0.014Z" style="fill:rgb(226,90,19);fill-rule:nonzero;"/>
                </g>
            </g>
            <g transform="matrix(1.24592,0,0,1.32695,-307.813,842.427)">
                <g transform="matrix(600,0,0,600,775.414,467.506)">
                    <path d="M0.246,0.014C0.204,0.014 0.167,0.004 0.136,-0.016C0.104,-0.036 0.079,-0.064 0.062,-0.1C0.044,-0.136 0.035,-0.177 0.035,-0.224C0.035,-0.275 0.045,-0.32 0.065,-0.359C0.085,-0.398 0.112,-0.429 0.147,-0.452C0.181,-0.475 0.22,-0.486 0.264,-0.486C0.287,-0.486 0.31,-0.482 0.333,-0.473C0.356,-0.464 0.375,-0.451 0.39,-0.436L0.39,-0.477C0.396,-0.479 0.403,-0.481 0.411,-0.482C0.419,-0.483 0.427,-0.484 0.436,-0.484C0.452,-0.484 0.467,-0.482 0.481,-0.477L0.481,-0.175C0.481,-0.138 0.486,-0.112 0.496,-0.096C0.505,-0.08 0.521,-0.072 0.542,-0.072C0.551,-0.072 0.559,-0.068 0.564,-0.06C0.569,-0.052 0.571,-0.041 0.571,-0.028C0.571,-0.017 0.568,-0.008 0.563,0.001C0.557,0.01 0.548,0.014 0.535,0.014C0.472,0.014 0.429,-0.012 0.407,-0.064C0.388,-0.039 0.364,-0.02 0.337,-0.007C0.31,0.007 0.279,0.014 0.246,0.014ZM0.128,-0.224C0.128,-0.177 0.139,-0.139 0.161,-0.113C0.182,-0.086 0.212,-0.072 0.25,-0.072C0.292,-0.072 0.326,-0.086 0.352,-0.115C0.377,-0.144 0.39,-0.181 0.39,-0.228L0.39,-0.34C0.377,-0.358 0.36,-0.373 0.339,-0.384C0.318,-0.395 0.297,-0.4 0.275,-0.4C0.246,-0.4 0.221,-0.392 0.199,-0.377C0.177,-0.362 0.16,-0.341 0.147,-0.315C0.134,-0.288 0.128,-0.258 0.128,-0.224Z" style="fill:rgb(243,241,226);fill-rule:nonzero;"/>
                </g>
                <g transform="matrix(600,0,0,600,1092.21,467.506)">
                    <path d="M-0.008,0.014C-0.017,0.014 -0.024,0.01 -0.029,0.002C-0.034,-0.006 -0.037,-0.016 -0.037,-0.029C-0.037,-0.058 -0.025,-0.072 -0.001,-0.072C0.018,-0.072 0.038,-0.075 0.058,-0.082C0.078,-0.088 0.101,-0.099 0.128,-0.114C0.102,-0.159 0.089,-0.213 0.089,-0.274C0.089,-0.315 0.097,-0.352 0.112,-0.384C0.127,-0.415 0.149,-0.44 0.176,-0.459C0.203,-0.477 0.234,-0.486 0.269,-0.486C0.298,-0.486 0.324,-0.479 0.347,-0.466C0.37,-0.452 0.387,-0.433 0.4,-0.409C0.413,-0.385 0.419,-0.357 0.419,-0.326C0.419,-0.283 0.407,-0.244 0.382,-0.209C0.357,-0.174 0.314,-0.135 0.255,-0.094C0.276,-0.079 0.305,-0.071 0.341,-0.071C0.35,-0.071 0.358,-0.067 0.363,-0.059C0.368,-0.051 0.371,-0.04 0.371,-0.027C0.371,-0.014 0.368,-0.004 0.362,0.003C0.356,0.01 0.347,0.014 0.336,0.014C0.304,0.014 0.274,0.009 0.246,-0.002C0.218,-0.013 0.195,-0.027 0.176,-0.046C0.112,-0.006 0.051,0.014 -0.008,0.014ZM0.176,-0.282C0.176,-0.229 0.185,-0.187 0.204,-0.156C0.247,-0.186 0.28,-0.215 0.301,-0.244C0.322,-0.273 0.332,-0.3 0.332,-0.326C0.332,-0.35 0.326,-0.369 0.315,-0.383C0.303,-0.396 0.287,-0.403 0.266,-0.403C0.24,-0.403 0.219,-0.391 0.202,-0.368C0.185,-0.345 0.176,-0.316 0.176,-0.282Z" style="fill:rgb(243,241,226);fill-rule:nonzero;"/>
                </g>
                <g transform="matrix(600,0,0,600,1348.41,467.506)">
                    <path d="M-0.104,0.014C-0.113,0.014 -0.121,0.01 -0.127,0.002C-0.133,-0.006 -0.136,-0.016 -0.136,-0.029C-0.136,-0.042 -0.133,-0.053 -0.126,-0.06C-0.119,-0.067 -0.111,-0.071 -0.1,-0.071C-0.047,-0.071 -0.001,-0.085 0.04,-0.112C0.08,-0.139 0.112,-0.177 0.135,-0.225C0.158,-0.273 0.17,-0.328 0.17,-0.39L0.17,-0.486L0.096,-0.486C0.091,-0.497 0.089,-0.51 0.089,-0.526C0.089,-0.542 0.091,-0.555 0.096,-0.566L0.17,-0.566L0.17,-0.743C0.183,-0.748 0.198,-0.75 0.216,-0.75C0.232,-0.75 0.247,-0.748 0.262,-0.743L0.262,-0.566L0.411,-0.566C0.416,-0.555 0.419,-0.542 0.419,-0.526C0.419,-0.51 0.416,-0.497 0.411,-0.486L0.262,-0.486L0.262,-0.279C0.262,-0.212 0.272,-0.161 0.293,-0.126C0.313,-0.09 0.342,-0.072 0.379,-0.072C0.398,-0.072 0.408,-0.057 0.408,-0.028C0.408,-0.015 0.405,-0.005 0.399,0.003C0.392,0.01 0.383,0.014 0.372,0.014C0.326,0.014 0.288,0 0.257,-0.028C0.226,-0.055 0.204,-0.094 0.191,-0.143C0.16,-0.094 0.119,-0.055 0.069,-0.028C0.018,0 -0.039,0.014 -0.104,0.014Z" style="fill:rgb(243,241,226);fill-rule:nonzero;"/>
                </g>
                <g transform="matrix(600,0,0,600,1567.41,467.506)">
                    <path d="M-0.008,0.014C-0.017,0.014 -0.024,0.01 -0.029,0.002C-0.034,-0.006 -0.037,-0.016 -0.037,-0.029C-0.037,-0.042 -0.034,-0.053 -0.028,-0.061C-0.021,-0.068 -0.013,-0.072 -0.002,-0.072C0.027,-0.072 0.056,-0.085 0.083,-0.112C0.11,-0.138 0.14,-0.182 0.173,-0.244L0.173,-0.779C0.173,-0.846 0.187,-0.897 0.216,-0.933C0.244,-0.969 0.285,-0.987 0.339,-0.986C0.388,-0.985 0.427,-0.967 0.455,-0.93C0.482,-0.893 0.496,-0.846 0.496,-0.787C0.496,-0.74 0.487,-0.687 0.47,-0.629C0.453,-0.571 0.43,-0.515 0.401,-0.462C0.408,-0.463 0.415,-0.463 0.422,-0.463C0.472,-0.463 0.512,-0.445 0.542,-0.41C0.571,-0.375 0.586,-0.327 0.586,-0.268L0.586,-0.182C0.586,-0.143 0.591,-0.115 0.601,-0.098C0.61,-0.081 0.626,-0.072 0.649,-0.072C0.66,-0.072 0.667,-0.068 0.672,-0.06C0.677,-0.051 0.679,-0.041 0.679,-0.028C0.679,-0.015 0.676,-0.005 0.67,0.003C0.663,0.01 0.654,0.014 0.643,0.014C0.595,0.014 0.558,-0.002 0.533,-0.033C0.507,-0.064 0.494,-0.107 0.494,-0.164L0.494,-0.27C0.494,-0.304 0.487,-0.331 0.472,-0.35C0.456,-0.369 0.435,-0.378 0.408,-0.378C0.381,-0.378 0.357,-0.369 0.336,-0.352C0.315,-0.334 0.298,-0.31 0.285,-0.279C0.272,-0.248 0.266,-0.213 0.265,-0.173L0.265,-0C0.258,0.002 0.251,0.004 0.243,0.005C0.235,0.006 0.227,0.007 0.22,0.007C0.205,0.007 0.189,0.005 0.173,-0L0.173,-0.082C0.146,-0.047 0.118,-0.022 0.09,-0.008C0.061,0.007 0.029,0.014 -0.008,0.014ZM0.262,-0.78L0.262,-0.394C0.292,-0.44 0.318,-0.486 0.34,-0.533C0.361,-0.58 0.378,-0.625 0.39,-0.669C0.401,-0.712 0.407,-0.752 0.407,-0.788C0.407,-0.825 0.401,-0.854 0.389,-0.874C0.376,-0.893 0.358,-0.903 0.335,-0.903C0.286,-0.903 0.262,-0.862 0.262,-0.78Z" style="fill:rgb(243,241,226);fill-rule:nonzero;"/>
                </g>
                <g transform="matrix(600,0,0,600,1949.01,467.506)">
                    <path d="M-0.001,-0.072C0.021,-0.072 0.043,-0.083 0.064,-0.104C0.085,-0.125 0.102,-0.153 0.117,-0.188C0.114,-0.204 0.113,-0.22 0.113,-0.237C0.113,-0.285 0.123,-0.328 0.144,-0.365C0.165,-0.402 0.193,-0.432 0.229,-0.454C0.264,-0.475 0.304,-0.486 0.349,-0.486C0.394,-0.486 0.434,-0.475 0.469,-0.454C0.504,-0.432 0.532,-0.402 0.553,-0.365C0.573,-0.328 0.583,-0.285 0.583,-0.237C0.583,-0.189 0.573,-0.146 0.553,-0.108C0.532,-0.07 0.505,-0.04 0.47,-0.019C0.435,0.003 0.394,0.014 0.349,0.014C0.308,0.014 0.272,0.005 0.239,-0.013C0.206,-0.03 0.178,-0.054 0.157,-0.085C0.116,-0.019 0.061,0.014 -0.008,0.014C-0.017,0.014 -0.024,0.01 -0.029,0.002C-0.034,-0.006 -0.037,-0.016 -0.037,-0.029C-0.037,-0.058 -0.025,-0.072 -0.001,-0.072ZM0.348,-0.072C0.391,-0.072 0.425,-0.087 0.451,-0.117C0.476,-0.147 0.489,-0.187 0.489,-0.237C0.489,-0.262 0.485,-0.284 0.478,-0.305C0.438,-0.306 0.402,-0.314 0.37,-0.329C0.337,-0.344 0.312,-0.364 0.293,-0.389C0.266,-0.378 0.245,-0.359 0.23,-0.332C0.215,-0.305 0.207,-0.272 0.207,-0.235C0.207,-0.186 0.22,-0.147 0.246,-0.117C0.271,-0.087 0.305,-0.072 0.348,-0.072Z" style="fill:rgb(243,241,226);fill-rule:nonzero;"/>
                </g>
                <g transform="matrix(600,0,0,600,2318.61,467.506)">
                    <path d="M0.141,0.014C0.118,0.014 0.094,0.011 0.071,0.004C0.048,-0.004 0.023,-0.015 -0.002,-0.03C-0.003,-0.065 0.01,-0.091 0.038,-0.108C0.075,-0.084 0.109,-0.072 0.142,-0.072C0.17,-0.072 0.192,-0.08 0.209,-0.095C0.226,-0.11 0.234,-0.129 0.234,-0.152C0.234,-0.181 0.218,-0.209 0.186,-0.234L0.11,-0.294C0.085,-0.313 0.066,-0.334 0.053,-0.356C0,-0.323 -0.056,-0.307 -0.116,-0.307C-0.127,-0.307 -0.136,-0.311 -0.143,-0.319C-0.15,-0.327 -0.154,-0.337 -0.154,-0.35C-0.154,-0.377 -0.143,-0.391 -0.12,-0.391C-0.095,-0.391 -0.07,-0.396 -0.044,-0.405C-0.017,-0.413 0.006,-0.426 0.027,-0.443L0.027,-0.45C0.027,-0.483 0.033,-0.508 0.046,-0.524C0.058,-0.54 0.068,-0.55 0.076,-0.553C0.087,-0.556 0.099,-0.556 0.113,-0.553C0.126,-0.55 0.137,-0.545 0.148,-0.538C0.159,-0.531 0.166,-0.523 0.17,-0.514C0.167,-0.494 0.16,-0.475 0.151,-0.458C0.142,-0.44 0.13,-0.424 0.117,-0.409C0.122,-0.4 0.128,-0.392 0.136,-0.384C0.143,-0.376 0.153,-0.367 0.165,-0.358L0.241,-0.296C0.268,-0.274 0.289,-0.251 0.303,-0.228C0.316,-0.204 0.323,-0.177 0.323,-0.148C0.323,-0.117 0.315,-0.09 0.3,-0.065C0.285,-0.04 0.263,-0.021 0.236,-0.007C0.209,0.007 0.177,0.014 0.141,0.014Z" style="fill:rgb(243,241,226);fill-rule:nonzero;"/>
                </g>
            </g>
        </g>
    </g>
</svg>
